<svg width="24" height="24" xmlns="http://www.w3.org/2000/svg">

 <g>
  <title>background</title>
  <rect fill="none" id="canvas_background" height="402" width="582" y="-1" x="-1"/>
 </g>
 <g>
  <title>Layer 1</title>
  <path id="svg_1" fill="#1D1D1D" d="m1.76221,22.75c0,0.41406 0.33593,0.75 0.75,0.75l18.95117,0c0.41406,0 0.75,-0.33594 0.75,-0.75l0,-2.75c0,-0.41406 -0.33594,-0.75 -0.75,-0.75s-0.75,0.33594 -0.75,0.75l0,2l-17.45117,0l0,-2c0,-0.41406 -0.33594,-0.75 -0.75,-0.75s-0.75,0.33594 -0.75,0.75l0,2.75z"/>
  <path id="svg_2" fill="#1D1D1D" d="m1.76221,7.5c0,0.41406 0.33593,0.75 0.75,0.75s0.75,-0.33594 0.75,-0.75l0,-5.5l12.97558,0l0,4c0,0.41406 0.33594,0.75 0.75,0.75l3.75,0l0,0.75c0,0.41406 0.33594,0.75 0.75,0.75s0.75,-0.33594 0.75,-0.75l0,-2.5c0,-0.19727 -0.07812,-0.38672 -0.21679,-0.52734l-3.70948,-3.75c-0.14111,-0.14258 -0.333,-0.22266 -0.5332,-0.22266l-15.26611,0c-0.41407,0 -0.75,0.33594 -0.75,0.75l0,6.25zm18.9176,-2.25l-2.94202,0l0,-2.97455l2.94202,2.97455z"/>
  <text data-vivaldi-spatnav-clickable="1" stroke="null" transform="matrix(0.6436525894255523,0,0,0.46276890266857745,51.51157751236171,-3.9277828206441665) " xml:space="preserve" text-anchor="start" font-family="Helvetica, Arial, sans-serif" font-size="24" id="svg_6" y="46.504995" x="-78.526511" fill-opacity="null" stroke-opacity="null" stroke-width="0" fill="#000000">&lt;/&gt;</text>
 </g>
</svg>